<svg width="77" height="119" viewBox="0 0 77 119" fill="none" xmlns="http://www.w3.org/2000/svg">
<path d="M8.03534 33.5C8.03534 33.5 8.03534 45.8611 8.03534 52.5M8.03534 33.5L23.2853 37.75M8.03534 33.5L14 30.5L38.5353 42M8.03534 52.5C12.7522 53.7574 15.649 55.6198 15.5353 60.5C15.437 64.723 13.3957 66.285 9.53534 68M8.03534 52.5C3.86661 54.3338 1.69166 55.9587 2.03534 60.5C2.38059 65.0621 5.1103 66.8377 9.53534 68M9.53534 68C9.53534 72.1005 9.53534 80 9.53534 80L21.5352 83.5172M38.5353 88.5V42M38.5353 88.5L53.0353 82.75L63.0353 78.7845M38.5353 88.5L21.5352 83.5172M38.5353 42L67.5353 33.5M38.5353 42L23.2853 37.75M38.5353 42L55.8621 33.5M67.5353 33.5C67.5353 33.5 67.5353 43.9469 67.5353 50M67.5353 33.5L65.0352 29L55.8621 33.5M67.5353 50C64.421 51.7748 62.9349 53.4169 63.0353 57C63.1311 60.4144 64.5677 62.8088 67.5353 64.5M67.5353 50C71.9513 49.8575 74.6776 52.584 74.5352 57C74.3971 61.2802 71.8155 64.6381 67.5353 64.5M67.5353 64.5C67.5353 69.3816 67.5353 77 67.5353 77L63.0353 78.7845M21.5352 83.5172C21.5352 83.5172 16.2063 115.5 29.0352 115.5C38.5353 115.5 38.5816 100.5 48.0352 100.5C49.0352 100.5 46.5352 117 49.5352 117C69.0353 117 63.0353 78.7845 63.0353 78.7845M23.2853 37.75C23.2853 37.75 20.0284 17 38.5353 17C56.5352 17 55.8621 33.5 55.8621 33.5" stroke="black" stroke-width="3"/>
<path d="M23.3843 7.67993L28.3843 13.6799" stroke="black" stroke-width="3" stroke-linecap="round"/>
<path d="M55 8L50 14" stroke="black" stroke-width="3" stroke-linecap="round"/>
<path d="M39.5 2V10" stroke="black" stroke-width="3" stroke-linecap="round"/>
</svg>
